<svg width="62" height="64" viewBox="0 0 62 64" fill="none" xmlns="http://www.w3.org/2000/svg">
<path d="M53.7797 20.5029C58.3055 15.9334 59.4377 9.64181 56.3037 6.4776C53.1697 3.31339 46.9383 4.45657 42.4125 9.02605C38.1316 13.3482 36.8892 19.2096 39.4194 22.5092L33.512 28.4735L32.3165 27.2664L4.08421 55.7709L7.48081 59.2003L35.7132 30.6956L34.5178 29.4887L40.4251 23.5244C43.6934 26.0791 49.4988 24.825 53.7797 20.5029ZM33.6176 30.7812L7.56571 57.0842L6.18045 55.6856L32.2323 29.3826L33.6176 30.7812ZM40.9784 21.9506C38.3991 19.3465 39.4938 14.004 43.4185 10.0415C47.3431 6.07898 52.6346 4.97369 55.2139 7.57786C57.7934 10.1822 56.6987 15.5248 52.7741 19.4873C48.8494 23.4498 43.5578 24.5549 40.9784 21.9506Z" fill="white"/>
</svg>
